<?xml version="1.0" standalone="no"?><!DOCTYPE svg PUBLIC "-//W3C//DTD SVG 1.1//EN" "http://www.w3.org/Graphics/SVG/1.1/DTD/svg11.dtd"><svg t="1532677880951" class="icon" style="" viewBox="0 0 1025 1024" version="1.1" xmlns="http://www.w3.org/2000/svg" p-id="28790" xmlns:xlink="http://www.w3.org/1999/xlink" width="32.03125" height="32"><defs><style type="text/css"></style></defs><path d="M982.404923 586.898759c-29.175888 205.811744-190.441208 368.80593-395.495934 400.554657v36.546584H441.203461v-36.546584c-205.049611-31.723151-366.335391-194.737797-395.495934-400.554657H4.10222V441.208576h43.272792c33.677076-200.082959 192.794102-357.302324 393.828449-388.416792V4.117565h145.700413v48.679334c201.029231 31.114468 360.141142 188.328718 393.843793 388.411677h43.257448v145.690183h-41.600192z m-504.767408 400.656956h72.832305v-72.852764H477.637515v72.852764zM40.526044 477.62217v72.85788h72.84765V477.62217H40.526044z m509.943776-437.080781H477.637515v72.852765h72.832305V40.541389z m36.434054 67.456453v41.820136H441.203461v-41.820136C270.347539 138.002358 135.199345 271.293812 102.739635 441.208576h47.057883v145.690183h-49.022038c28.219385 175.653779 165.546564 314.6331 340.427981 345.343484V878.294471h145.700413v53.947772c174.881416-30.710384 312.208596-169.689704 340.433096-345.343484h-49.011809V441.208576h47.052769c-32.469939-169.914764-167.613019-303.206218-338.474056-333.210734z m400.692761 369.624328H914.713181v72.85788h72.883454V477.62217z" fill="#F35556" p-id="28791"></path></svg>