<?xml version="1.0" standalone="no"?><!DOCTYPE svg PUBLIC "-//W3C//DTD SVG 1.1//EN" "http://www.w3.org/Graphics/SVG/1.1/DTD/svg11.dtd"><svg t="1532678116511" class="icon" style="" viewBox="0 0 1024 1024" version="1.1" xmlns="http://www.w3.org/2000/svg" p-id="36282" xmlns:xlink="http://www.w3.org/1999/xlink" width="32" height="32"><defs><style type="text/css"></style></defs><path d="M781.44 680.32l-6.4-7.68a228.48 228.48 0 0 0-28.16-30.08l-22.4-21.12a332.8 332.8 0 0 1-44.8-55.04c-5.76-8.96-12.16-17.28-17.28-26.24s-15.36-23.04-23.04-34.56a216.96 216.96 0 0 0-29.44-35.2 192 192 0 0 0-16-13.44h-4.48a105.6 105.6 0 0 0-18.56-10.24A172.16 172.16 0 0 0 512 432a113.28 113.28 0 0 0-77.44 28.16l-10.24 9.6-17.28 18.56c-17.28 19.84-31.36 42.88-46.72 64s-17.28 23.68-26.24 34.56L320 604.16a272 272 0 0 1-22.4 23.68l-21.12 19.2-14.72 15.36a242.56 242.56 0 0 0-35.84 55.68 132.48 132.48 0 0 0-16.64 47.36 135.04 135.04 0 0 0 11.52 64 120.96 120.96 0 0 0 10.88 19.84 157.44 157.44 0 0 0 14.08 16.64 81.28 81.28 0 0 0 16 14.08l14.08 8.96a85.76 85.76 0 0 0 25.6 8.96H337.92a557.44 557.44 0 0 0 101.12-21.76l21.12-5.12 51.84-1.28a347.52 347.52 0 0 1 89.6 14.72 394.24 394.24 0 0 0 86.4 17.92h14.72a122.24 122.24 0 0 0 72.32-28.16 128 128 0 0 0 48-82.56 139.52 139.52 0 0 0-41.6-111.36z" fill="#F35556" p-id="36283"></path><path d="M937.6 490.24a115.84 115.84 0 0 1-128 100.48A115.84 115.84 0 0 1 734.08 448c14.72-67.2 71.68-147.84 128-135.68s90.24 110.08 75.52 177.92zM723.2 301.44a115.84 115.84 0 0 1-128 100.48A115.84 115.84 0 0 1 519.04 256c14.08-67.2 71.68-147.84 128-135.68s90.24 113.28 76.16 181.12zM471.04 271.36a115.84 115.84 0 0 1-94.08 133.12A115.84 115.84 0 0 1 263.04 288C256 219.52 289.28 128 346.88 121.6s118.4 81.28 124.16 149.76zM291.2 459.52a115.84 115.84 0 0 1-93.44 133.12A115.84 115.84 0 0 1 83.2 476.16c-5.76-69.12 26.88-161.92 83.84-166.4s119.04 81.28 124.16 149.76z" fill="#F35556" p-id="36284"></path></svg>