<?xml version="1.0" standalone="no"?><!DOCTYPE svg PUBLIC "-//W3C//DTD SVG 1.1//EN" "http://www.w3.org/Graphics/SVG/1.1/DTD/svg11.dtd"><svg t="1533006136465" class="icon" style="" viewBox="0 0 1024 1024" version="1.1" xmlns="http://www.w3.org/2000/svg" p-id="2976" xmlns:xlink="http://www.w3.org/1999/xlink" width="32" height="32"><defs><style type="text/css"></style></defs><path d="M747.61216 355.2512c0-129.89952-105.70752-235.5968-235.6224-235.5968S276.38784 225.3568 276.38784 355.2512c0 123.52 95.53408 225.12128 216.59648 234.83392v125.09184H379.27936c-7.69536 0-13.93664 9.22112-13.93664 20.58752 0 11.37664 6.24128 20.58752 13.93664 20.58752h113.70496v130.3552c0 9.74848 9.22112 17.6384 20.58752 17.6384s20.58752-7.88992 20.58752-17.6384v-130.3552h110.55616c7.69536 0 13.93664-9.21088 13.93664-20.58752 0-11.3664-6.24128-20.58752-13.93664-20.58752h-110.55616v-125.37344c119.55712-11.20768 213.4528-112.11264 213.4528-234.55232z m-423.60832 0c0-103.64416 84.3264-187.98592 187.98592-187.98592 103.6544 0 188.00128 84.34176 188.00128 187.98592 0 103.65952-84.34176 187.98592-188.00128 187.98592s-187.98592-84.3264-187.98592-187.98592z" fill="#F35556" p-id="2977"></path></svg>