<?xml version="1.0" standalone="no"?><!DOCTYPE svg PUBLIC "-//W3C//DTD SVG 1.1//EN" "http://www.w3.org/Graphics/SVG/1.1/DTD/svg11.dtd"><svg t="1533519464453" class="icon" style="" viewBox="0 0 1040 1024" version="1.1" xmlns="http://www.w3.org/2000/svg" p-id="2245" xmlns:xlink="http://www.w3.org/1999/xlink" width="16.25" height="16"><defs><style type="text/css"></style></defs><path d="M518.714754 13.429508C240.052459 13.429508 13.429508 240.052459 13.429508 518.714754S240.052459 1024 518.714754 1024 1024 797.377049 1024 518.714754 799.055738 13.429508 518.714754 13.429508z m33.573771 753.731148c-10.072131 10.072131-23.501639 15.108197-36.931148 15.108196-15.108197 0-26.859016-5.036066-36.931147-15.108196s-15.108197-21.822951-15.108197-36.931148c0-15.108197 5.036066-26.859016 15.108197-36.931147 10.072131-10.072131 23.501639-15.108197 36.931147-15.108197 15.108197 0 28.537705 5.036066 38.609836 15.108197 10.072131 10.072131 15.108197 21.822951 15.108197 36.931147-1.678689 13.429508-6.714754 26.859016-16.786885 36.931148zM654.688525 485.140984c-6.714754 8.393443-26.859016 26.859016-60.432787 55.396721-13.429508 11.75082-23.501639 25.180328-30.216394 36.931147-8.393443 15.108197-11.75082 30.216393-11.750819 47.003279v11.75082h-77.219673v-11.75082c0-26.859016 5.036066-50.360656 15.108197-68.826229 10.072131-20.144262 36.931148-50.360656 80.577049-88.970492l11.75082-13.429508c13.429508-16.786885 20.144262-33.57377 20.144262-52.039345 0-25.180328-6.714754-45.32459-20.144262-58.754098-15.108197-15.108197-35.252459-21.822951-60.432787-21.822951-31.895082 0-55.396721 10.072131-70.504918 30.216394-13.429508 16.786885-20.144262 41.967213-20.144262 73.862295h-75.540984c0-52.039344 15.108197-94.006557 45.32459-124.222951 30.216393-30.216393 72.183607-45.32459 125.90164-45.32459 45.32459 0 83.934426 11.75082 112.472131 38.609836 28.537705 25.180328 43.645902 60.432787 43.645902 102.4 0 36.931148-10.072131 67.147541-28.537705 88.970492z" fill="#5DBAFF" p-id="2246"></path></svg>