<?xml version="1.0" standalone="no"?><!DOCTYPE svg PUBLIC "-//W3C//DTD SVG 1.1//EN" "http://www.w3.org/Graphics/SVG/1.1/DTD/svg11.dtd"><svg t="1533519522958" class="icon" style="" viewBox="0 0 1024 1024" version="1.1" xmlns="http://www.w3.org/2000/svg" p-id="4101" xmlns:xlink="http://www.w3.org/1999/xlink" width="16" height="16"><defs><style type="text/css"></style></defs><path d="M512 512m-469.333333 0a469.333333 469.333333 0 1 0 938.666666 0 469.333333 469.333333 0 1 0-938.666666 0Z" fill="#E9981B" p-id="4102"></path><path d="M546.133333 620.8H469.333333v-19.2c0-25.6 4.266667-44.8 12.8-61.866667 8.533333-14.933333 25.6-36.266667 51.2-55.466666 25.6-19.2 38.4-34.133333 44.8-38.4 8.533333-10.666667 10.666667-21.333333 10.666667-34.133334 0-17.066667-6.4-32-19.2-42.666666-12.8-10.666667-32-17.066667-55.466667-17.066667-21.333333 0-38.4 6.4-55.466666 19.2-14.933333 12.8-25.6 32-29.866667 57.6l-78.933333-10.666667c2.133333-36.266667 17.066667-66.133333 46.933333-91.733333 29.866667-25.6 66.133333-38.4 113.066667-38.4 49.066667 0 87.466667 12.8 117.333333 38.4 29.866667 25.6 42.666667 55.466667 42.666667 89.6 0 19.2-6.4 36.266667-14.933334 53.333333-10.666667 17.066667-34.133333 38.4-68.266666 68.266667-17.066667 14.933333-29.866667 27.733333-34.133334 36.266667-4.266667 6.4-6.4 23.466667-6.4 46.933333z m-74.666666 115.2v-85.333333h85.333333v85.333333h-85.333333z" fill="#FFFFFF" p-id="4103"></path></svg>