<?xml version="1.0" standalone="no"?><!DOCTYPE svg PUBLIC "-//W3C//DTD SVG 1.1//EN" "http://www.w3.org/Graphics/SVG/1.1/DTD/svg11.dtd"><svg t="1533027368465" class="icon" style="" viewBox="0 0 1024 1024" version="1.1" xmlns="http://www.w3.org/2000/svg" p-id="6754" xmlns:xlink="http://www.w3.org/1999/xlink" width="16" height="16"><defs><style type="text/css"></style></defs><path d="M54.774488 477.534614a89.84159 69.181332 0 1 0 179.68318 0 89.84159 69.181332 0 1 0-179.68318 0Z" fill="#EEDD8F" p-id="6755"></path><path d="M278.005248 259.548587a118.590315 86.966231 90 1 0 173.932461 0 118.590315 86.966231 90 1 0-173.932461 0Z" fill="#EEDD8F" p-id="6756"></path><path d="M565.100845 253.707862a124.43104 96.673608 90 1 0 193.347216 0 124.43104 96.673608 90 1 0-193.347216 0Z" fill="#EEDD8F" p-id="6757"></path><path d="M808.454252 461.111984a74.44431 70.400076 90 1 0 140.800152 0 74.44431 70.400076 90 1 0-140.800152 0Z" fill="#EEDD8F" p-id="6758"></path><path d="M497.079873 410.189911c93.995292-0.83074 194.104978 81.731229 300.364332 247.715098 44.808894 69.995044 31.479343 162.26804-31.307843 216.717414l-25.958507 22.477426c-46.272116 40.118799-113.872245 43.706917-164.132645 8.718517l-6.19832-4.31912c-47.623438-33.168799-110.876471-33.101902-158.424497 0.166634l-9.635616 6.751742c-51.850118 36.309314-121.987471 31.609488-168.530824-11.293447l-18.211824-16.800902C156.147922 826.050263 144.763252 737.302137 188.056623 669.920945c110.712269-172.325715 213.699747-258.897861 308.995275-259.731034h0.027975zM234.642547 699.838544c-28.759672 44.766323-21.195434 103.718481 17.930856 139.771153l18.239798 16.800903c27.409567 25.248182 68.698457 28.007992 99.229078 6.641058l9.63075-6.721335c66.569913-46.585925 155.138025-46.685662 221.808892-0.251776l6.203185 4.31912c29.469997 20.515516 69.103489 18.406433 96.235736-5.121885l25.960941-22.501752c42.010163-36.441891 50.93302-98.189132 20.950955-145.030482C653.845322 536.264187 567.325477 464.934849 497.579777 465.518678c-71.435157 0.636131-161.361888 76.223773-262.93723 234.319866zM636.525054 402.716897c-89.76253-15.802311-109.332972-93.798249-88.212949-174.288841 21.147998-80.514918 78.827894-144.865063 142.543126-133.628783 63.714015 11.237497 97.896001 76.223773 88.208084 174.318032-9.687916 98.060203-52.757486 149.459069-142.538261 133.599592z m9.63075-54.52357c50.596102 8.936236 70.576441-10.961394 77.826871-84.528744 7.083795-71.686933-11.980663-108.94132-42.758194-114.367283-26.128791-4.594006-63.380746 32.217644-79.354557 93.166984-16.382492 62.468513-1.325779 97.697742 44.28588 105.729043z m-273.291684 51.036406c-90.339061 12.732343-137.034453-50.458658-137.034453-133.324705 0-82.894022 30.916191-156.932084 94.963475-165.954678 64.074043-9.022594 114.722446 52.476518 137.062428 133.323489 22.307142 80.874946-4.623198 153.279502-94.99145 165.955894z m-7.696815-54.800888c48.742444-6.866075 65.182102-38.974251 49.322624-96.402371-17.546501-63.604547-49.706978-96.958225-75.976862-93.275236-25.684838 3.596631-47.326658 44.894036-47.326658 111.15379 0 58.236967 25.352785 85.355835 73.980896 78.523817z m457.792671 213.396885c-64.103234-38.034042-69.194712-102.935177-34.517688-149.130665 34.712297-46.19184 95.049833-73.786286 144.758028-49.73617 49.76901 24.051332 62.05375 97.618682 34.54323 149.127016-27.483762 51.507119-80.628035 87.796971-144.753162 49.764145l-0.030408-0.024326z m28.2622-47.607625c27.205226 16.163556 49.125582 6.639841 67.699866-28.175843 14.94238-28.012857 7.162855-65.043443-9.804682-73.263272-20.146974-9.745083-53.662421 2.879008-76.390407 33.182178-17.905313 23.804421-13.144672 49.517234 18.494007 68.284912v-0.027975zM226.394743 555.46852c-47.911703 47.911703-115.611569 38.75045-152.865956-7.915752-37.283579-46.690527-43.730026-117.79728-7.915752-152.889066 35.7863-35.068676 102.294181-38.527865 152.865956 7.914535 50.59002 46.443616 55.850565 104.955469 7.915752 152.890283z m-39.140886-39.188322c24.136474-24.136474 22.753528-46.391315-6.195887-72.988386-26.848847-24.635161-60.202525-25.323593-76.722461-9.132062-12.18257 11.953904-9.687916 51.089924 12.452592 78.798703 18.653344 23.38601 48.106313 25.658079 70.465756 3.321745z m0 0" fill="#6B4A22" p-id="6759"></path><path d="M345.790255 663.620454a142.47258 131.713093 0 1 0 284.945159 0 142.47258 131.713093 0 1 0-284.945159 0Z" fill="#EEDD8F" p-id="6760"></path></svg>