<?xml version="1.0" standalone="no"?><!DOCTYPE svg PUBLIC "-//W3C//DTD SVG 1.1//EN" "http://www.w3.org/Graphics/SVG/1.1/DTD/svg11.dtd"><svg t="1532943164501" class="icon" style="" viewBox="0 0 1024 1024" version="1.1" xmlns="http://www.w3.org/2000/svg" p-id="2206" xmlns:xlink="http://www.w3.org/1999/xlink" width="32" height="32"><defs><style type="text/css"></style></defs><path d="M512 0C229.232 0 0 229.232 0 512s229.232 512 512 512 512-229.232 512-512S794.768 0 512 0zM512 906.88c-203.232 0-368-164.752-368-368 0-197.552 155.68-358.704 351.04-367.568l0.192-48.16c0.144-35.2 24.432-48.352 53.984-29.232l113.28 73.28c29.552 19.12 29.44 50.224-0.272 69.12l-113.84 72.4c-29.696 18.896-53.888 5.552-53.744-29.664l0.176-43.312C334.976 244.704 208 376.784 208 538.88c0 167.904 136.128 304 304 304s304-136.096 304-304c0-14.64-1.392-28.912-3.392-43.008 0 0-2.864-32.736 29.648-33.008 31.504-0.256 35.168 33.008 35.168 33.008C879.056 510 880 524.32 880 538.88 880 742.112 715.232 906.88 512 906.88z" p-id="2207" fill="#bfbfbf"></path></svg>