<?xml version="1.0" standalone="no"?><!DOCTYPE svg PUBLIC "-//W3C//DTD SVG 1.1//EN" "http://www.w3.org/Graphics/SVG/1.1/DTD/svg11.dtd"><svg t="1533030058030" class="icon" style="" viewBox="0 0 1024 1024" version="1.1" xmlns="http://www.w3.org/2000/svg" p-id="11591" xmlns:xlink="http://www.w3.org/1999/xlink" width="32" height="32"><defs><style type="text/css"></style></defs><path d="M851.27802734 62H167.94335937a49.471875 49.471875 0 0 0-49.471875 49.471875v470.32294922c0 27.21005859 22.26269531 49.47275391 49.47187501 49.47275391h37.16015625a52.84511719 52.84511719 0 0 0 12.53671875 20.23857421 11.52509766 11.52509766 0 0 0 5.62236328 3.26074219c61.95234375 16.02246094 77.29980469 36.03515625 80.95429687 46.49238281 4.10449219 11.63671875 3.82324219 18.55195313 3.65449219 21.36269532-0.61875 0.84375-0.84375 238.87177734-0.84375 238.87177734h26.59130859s-0.5625-228.80830078-0.1125-237.97265625c-0.89912109-18.10195313-5.90273437-29.79492188-5.90273437-29.79492188-11.97421875-27.26630859-41.20839844-46.49326172-94.89638672-60.94072265-4.49736328-5.34111328-5.84736328-9.72597656-5.84736328-13.21171875v-0.05625c0-4.77861328 2.97949219-9.55722656 8.43310547-13.66083985l0.45-0.3375a39.35302734 39.35302734 0 0 1 6.46523437-3.87861328c2.24824219-1.125 4.89111328-1.96875 7.47685547-2.92324218 4.15986328-0.95625 11.52509766-2.30537109 23.44306641-2.3053711 20.74482422 0 44.97451172 4.04736328 71.84707031 12.03046875 4.49736328 2.02412109 9.05097656 3.99199219 13.49208984 6.40898438a214.75458984 214.75458984 0 0 1 21.36357422 13.04296875l1.51787109 0.89912109c90.62402344 63.69521484 80.50429688 95.79638672 80.56054688 95.79638672a11.91796875 11.91796875 0 0 0 10.45634766 17.42783203 11.80546875 11.80546875 0 0 0 10.51347656-6.29648437c3.70986328-7.08398438 16.07783203-42.61376953-59.14160156-104.28486329h209.75097656c-75.10869141 61.61484375-62.74072266 97.08837891-59.02998047 104.11523438a12.42421875 12.42421875 0 0 0 10.90634766 6.57861328c1.68662109 0 3.54199219-0.45 5.28486328-1.34912109a11.46884766 11.46884766 0 0 0 5.05898437-15.68496094c-0.05625-0.3375-10.79296875-32.49492188 80.39267578-96.41513672a205.19736328 205.19736328 0 0 1 36.42978516-20.40732422c26.87167969-7.87060547 51.04599609-11.97421875 71.67832031-11.97421875 11.86171875 0 19.28320313 1.34912109 23.33056641 2.3616211 2.58574219 0.89912109 5.34023437 1.79824219 7.53310547 2.97949218 0.45 0.28125 0.84375 0.39287109 1.29287109 0.5625 1.96787109 1.12412109 3.87949219 2.24824219 5.45361328 3.37236328l0.28125 0.225c5.34023437 4.15986328 8.37597656 8.88222656 8.43222656 13.71708985l0.1125 0.1125a21.25019531 21.25019531 0 0 1-5.84648437 13.15546875c-53.68886719 14.44746094-85.39628906 35.02441406-94.22226563 61.27734375-2.81074219 8.82685547-3.59824219 11.13134766-4.83398437 32.60742187 1.79824219 4.60986328 2.97949219 234.82353516 2.97949219 234.82353516h22.9368164l-1.29375-238.81552734c0.5625-13.04296875 2.81162109-21.08144531 2.8116211-21.08144532 3.48486328-10.51347656 18.77695312-30.63867188 81.12304687-46.82988281a11.80546875 11.80546875 0 0 0 5.50898438-3.26074219 52.84511719 52.84511719 0 0 0 12.64921875-20.29482421 49.471875 49.471875 0 0 0 48.34863281-49.47275391V111.471875A49.584375 49.584375 0 0 0 851.33251953 62M244.23242187 289.45917969H349.75390625c4.49824219 15.74121094 12.03222656 55.54423828-5.84560547 105.80273437l-1.2375 3.48574219c-8.60097656 24.06181641-19.39482422 54.02636719 4.49736328 115.86621094 14.61708984 37.77890625 5.62236328 59.31035156-0.50537109 68.41845703h0.05625l-3.14824219-1.2375a187.82578125 187.82578125 0 0 0-40.75839844-10.45634766c-1.125-0.16875-2.24912109-0.3375-3.37324218-0.39375a163.76396484 163.76396484 0 0 0-17.54033203-1.12412109l-3.82324219 0.1125a119.74482422 119.74482422 0 0 0-13.71708985 1.01162109l-3.48486328 0.39375c-0.9 0.16875-1.6875 0.39375-2.64287109 0.50625 4.16074219-19.62070313 6.91523437-48.68525391-6.01523438-68.08007812-13.82958984-20.91357422-17.09033203-85.34003906-0.225-133.91279297 7.30898437-20.80107422-1.40537109-58.69160156-7.64560546-80.39267578m465.99433593 225.2671875c23.89306641-61.95234375 13.09921875-91.91601563 4.49736328-115.97871094l-1.29287109-3.37236328c-17.82158203-50.371875-10.17509766-90.17490234-5.73398437-105.80273438h105.46523437c-6.24023438 21.58769531-14.95371094 59.42285156-7.64560547 80.39179688 16.75283203 48.68525391 13.60546875 113.11171875-0.28125 133.96816406-12.92958984 19.39570312-10.11884766 48.46025391-6.01523437 68.02470703l-2.81074219-0.45-2.36162109-0.225a148.640625 148.640625 0 0 0-15.40371094-1.18037109l-2.07949219-0.1125a176.75068359 176.75068359 0 0 0-65.83183594 13.21083984c-6.18398438-9.10722656-15.17871094-30.69492188-0.5625-68.47382812m166.79970703 67.06933593a25.86005859 25.86005859 0 0 1-24.7359375 25.7475586 39.01552734 39.01552734 0 0 0-7.64560546-13.04296875l-1.57324219-1.57324219-0.5625-0.5625a50.98974609 50.98974609 0 0 0-5.90361328-5.17236328l-2.07949219-1.57412109a65.94433594 65.94433594 0 0 0-5.39736328-3.37324219l-2.3053711-1.5178711-0.84287109-0.3375s-0.1125 0-0.1125-0.1125c-4.49736328-15.17871094-11.18759766-47.89775391-0.84375-63.41396484 19.78945313-29.73955078 21.13857422-102.09287109 2.92412109-154.82548828-4.89111328-14.22333984 2.75449219-49.13525391 9.95009766-72.63457031h4.66699219a11.86171875 11.86171875 0 0 0 0-23.7796875H688.97480469a11.80546875 11.80546875 0 1 0-5.39648438 22.3180664c-5.28486328 21.13769531-11.01972656 62.90859375 7.58847656 115.19208985l1.2375 3.54199218c7.70185547 21.41894531 16.41533203 45.70488281-4.21699218 99.3375-16.86533203 43.51289062-8.09472656 71.79082031 0.9 86.96953125-7.87060547 4.16074219-15.85371094 8.99472656-23.89306641 14.44833985H392.53554688l-2.36074219-1.40625a234.26191406 234.26191406 0 0 0-21.81269531-13.20996094c8.99472656-15.17958984 17.76533203-43.51376953 0.89912109-86.91503906-20.74394531-53.51923828-12.03046875-77.80517578-4.32861328-99.225l1.34912109-3.65361328c18.55195313-52.28349609 12.87421875-93.94101563 7.58935547-115.13583985a11.80546875 11.80546875 0 0 0-5.34023437-22.3180664H215.05449219a11.86171875 11.86171875 0 1 0 0 23.7243164h4.60986328c7.19560547 23.6109375 14.84208984 58.46660156 9.95097656 72.63369141-17.93408203 51.72099609-16.52871094 125.5359375 2.92324219 154.82548828 10.28759766 15.45996094 3.65449219 48.23525391-0.84375 63.47021484-0.22412109 0.16875-0.67412109 0.225-0.8991211 0.39375l-2.58574218 1.5741211a77.18818359 77.18818359 0 0 0-5.05986328 3.14824219l-2.3053711 1.68662109a47.56113281 47.56113281 0 0 0-5.62148437 4.94736328l-0.7875 0.78662109c-0.50537109 0.50625-1.12412109 0.95625-1.57324219 1.4616211-1.40625 1.6875-2.58662109 3.48574219-3.76699219 5.22861328l-0.05625 0.16875a36.59765625 36.59765625 0 0 0-3.82324219 7.75810547h-37.16015625a25.7484375 25.7484375 0 0 1-25.74755859-25.7484375V111.303125c0-14.16621094 11.52421875-25.74755859 25.74755859-25.74755859h683.33466797c14.16708984 0 25.74755859 11.58134766 25.7475586 25.74755859l-0.1125 470.49169922M484.50957031 234.25332031a11.86171875 11.86171875 0 0 0-11.86259765-11.80634765c-40.19589844 0-74.2078125-24.8484375-90.62402344-36.82265625a104.79111328 104.79111328 0 0 0-8.82597656-6.07148438 11.91796875 11.91796875 0 0 0-12.08671875 20.46357422c1.57324219 0.95537109 3.93486328 2.64199219 6.85810547 4.89111328 18.43945313 13.43583984 56.72460938 41.32001953 104.56611328 41.32001953a12.03046875 12.03046875 0 0 0 11.97509765-11.97421875m169.89169922-54.70048828c-1.96787109 1.23662109-4.94736328 3.37324219-8.77060547 6.07148438-16.35908203 11.97421875-50.37099609 36.76640625-90.62402343 36.76640625a11.86171875 11.86171875 0 1 0 0 23.7243164c47.84238281 0 86.12666016-27.88417969 104.56699218-41.32001953 2.97949219-2.13662109 5.28398438-3.93574219 6.97060547-4.89111328a11.80546875 11.80546875 0 1 0-12.14296875-20.35107422m-60.15410156 322.18769531l-79.77392578-35.86816406a11.63671875 11.63671875 0 0 0-10.23134766 0.28125l-70.55419922 35.75478516a11.80546875 11.80546875 0 0 0-5.22861328 15.96621094 11.91796875 11.91796875 0 0 0 15.96621094 5.22861328l65.49433594-33.16904297 74.6015625 33.39404297a11.74921875 11.74921875 0 0 0 15.68583984-5.90273438 11.86171875 11.86171875 0 0 0-5.95898438-15.68496094" p-id="11592" fill="#bfbfbf"></path></svg>