<?xml version="1.0" standalone="no"?><!DOCTYPE svg PUBLIC "-//W3C//DTD SVG 1.1//EN" "http://www.w3.org/Graphics/SVG/1.1/DTD/svg11.dtd"><svg t="1533090719520" class="icon" style="" viewBox="0 0 1024 1024" version="1.1" xmlns="http://www.w3.org/2000/svg" p-id="8233" xmlns:xlink="http://www.w3.org/1999/xlink" width="32" height="32"><defs><style type="text/css"></style></defs><path d="M811.008 1024h-597.504c-117.248 0-213.504-96.256-213.504-213.504V213.504c0-117.248 96.256-213.504 213.504-213.504h597.504c117.248 0 213.504 96.256 213.504 213.504v597.504c0 117.248-96.256 212.992-213.504 212.992z" fill="#8F56E8" p-id="8234"></path><path d="M733.696 313.344l-7.168 7.168-49.152 48.64c-5.632 5.632-14.848 5.12-20.48 0s-5.12-14.848 0-20.48l7.168-7.168 49.152-48.64c5.632-5.632 14.848-5.12 20.48 0s5.12 14.848 0 20.48z m-51.712 195.072c0 47.104-20.48 92.16-56.32 123.392l-9.216 7.68c-0.512 0.512-1.024 0.512-1.024 1.024l-1.024 1.024c-0.512 1.024-1.536 2.048-2.048 3.072-2.048 3.584-3.584 7.168-5.12 10.752l-0.512 1.024 0.512-0.512c-0.512 1.536-1.536 3.584-2.048 5.12-3.072 7.68-5.632 15.872-8.704 23.552-6.656 18.432-14.336 36.864-27.136 52.224-10.752 13.312-26.112 22.528-43.52 25.088-1.536 0.512-2.56 0.512-4.096 0.512h-6.656c-3.584 0-7.68-0.512-11.264-1.024-22.528-4.608-38.4-23.04-48.64-41.984-5.632-10.24-10.24-20.992-14.336-31.744-2.048-5.12-4.096-9.728-5.632-14.848l-2.56-6.656-1.536-3.584-1.024-2.048c-1.536-3.584-3.072-6.656-4.608-10.24-1.024-1.536-2.048-3.584-3.072-5.12l-1.024-2.048c-1.024-1.024-2.048-2.56-3.072-3.072l-1.024-1.024c-8.192-5.632-15.36-12.288-22.016-19.968-23.04-25.088-37.888-56.832-41.984-91.136-4.096-30.72 1.536-62.464 14.848-90.112 12.288-26.624 32.256-49.152 56.32-65.536 24.576-16.896 53.76-26.112 83.968-28.16 30.208-1.536 60.416 5.12 87.552 19.456 25.6 13.824 47.616 34.304 62.976 59.392 14.336 26.112 23.04 55.808 23.04 85.504z m-29.184-9.728c0-1.536 0-3.072-0.512-5.12 0-0.512-0.512-2.56-0.512-3.584-1.024-6.144-2.048-12.288-4.096-18.432-1.024-3.584-2.048-6.656-3.072-9.728l-1.536-4.608-0.512-1.024v-0.512 0.512s0-0.512-0.512-0.512v-0.512 0.512c-4.608-10.24-10.752-20.48-17.408-29.696a156.16 156.16 0 0 0-22.528-22.528c-1.024-0.512-5.632-4.096-1.536-1.024-1.536-1.024-2.56-2.048-3.584-2.56-8.192-5.632-16.896-10.752-26.112-14.848-0.512-0.512-1.536-0.512-2.048-1.024h0.512c-10.752-4.096-21.504-7.168-33.28-9.216h-2.56c-10.752-1.024-21.504-1.024-31.744 0-1.024 0-7.168 1.024-2.048 0-3.072 0.512-6.656 1.024-9.728 1.536-8.704 2.048-17.408 4.608-26.112 7.68 0 0-0.512 0-0.512 0.512-8.704 4.096-17.408 8.704-25.6 14.336l-6.144 4.608c-7.68 6.144-14.336 12.8-20.992 20.48l-2.048 2.56v-0.512s0 0.512-0.512 0.512l-0.512 1.024-2.048 2.56c-5.632 7.68-10.752 16.384-14.848 25.088l-1.536 3.072v-0.512c-1.536 4.096-3.072 8.192-4.608 12.8-2.048 6.656-3.584 13.312-4.608 19.968v1.024-1.024c0 1.024 0 1.536-0.512 2.56-1.024 10.752-1.024 22.016 0 32.768 0 0.512 0.512 2.048 0.512 2.56 1.536 11.264 4.608 22.528 9.216 33.28l1.024 2.048c4.096 8.704 8.704 16.384 13.824 24.064 1.024 1.536 2.048 2.56 3.072 4.096-0.512-0.512-0.512-1.024 0.512 1.024l1.536 2.048c6.144 7.168 12.8 13.824 19.456 19.456l2.048 1.536 0.512 0.512s-0.512 0-0.512-0.512c15.36 11.264 22.016 30.208 28.672 47.616 2.048 4.608 3.584 9.216 5.632 13.824l3.072 7.68 0.512 1.024 1.536 3.072c4.096 9.216 8.704 18.432 14.336 26.624l2.048 2.56-0.512-0.512 0.512 0.512 0.512 0.512c1.536 1.536 3.072 3.584 4.608 5.12 1.536 1.536 3.072 3.072 4.608 4.096l0.512 0.512c2.048 1.536 4.096 2.56 6.144 3.584h0.512c2.048 0.512 3.584 1.536 5.632 1.536h1.024-0.512 9.728 1.024l6.144-1.536c1.024 0 1.536-0.512 2.56-1.024l1.024-0.512c2.048-1.024 4.096-2.048 5.632-3.072 1.024-0.512 1.536-1.536 2.56-2.048l-1.536 1.024c0.512-0.512 1.536-1.024 1.536-1.536l4.608-4.608c1.536-1.536 2.56-3.072 3.584-4.608l-1.024 2.048c1.536-2.048 2.56-3.584 4.096-5.632 4.608-7.168 8.192-14.848 11.776-22.528l0.512-1.024 1.024-3.072c2.56-6.144 4.608-11.776 6.656-17.92 2.56-7.168 5.12-14.848 8.192-22.016 3.072-6.656 5.632-13.824 10.24-19.968 2.048-3.072 4.608-5.632 7.168-8.192 1.024-0.512 1.536-1.024 2.56-2.048l1.024-1.024 0.512-0.512h-0.512c3.584-3.072 7.168-5.632 10.24-9.216 4.608-4.608 9.216-9.216 13.312-14.336v-0.512c1.536-2.56 1.024-1.536 0.512-0.512 0.512-0.512 1.024-1.024 1.024-1.536 2.56-3.584 5.12-7.168 7.68-11.264 3.584-5.632 6.656-11.264 9.216-17.408 0-0.512 1.024-2.048 1.024-2.56 1.536-4.608 3.072-8.704 4.608-13.312 2.048-6.656 3.072-13.312 4.096-19.968v-2.56c0.512-5.12 0.512-10.24 1.024-15.36 1.536 0 1.536-3.584 1.536-6.656z m-121.856 86.016v48.64c0 8.192-6.656 13.824-14.336 14.336-7.68 0.512-14.336-6.656-14.336-14.336v-62.464c0-8.192 6.656-13.824 14.336-14.336 1.024 0 2.048 0 3.072 0.512h2.56c2.048 0 4.608 0 6.656-0.512 2.56-0.512 5.632-1.024 8.192-1.536 1.536-0.512 2.56-0.512 4.096-1.024 0.512 0 1.536-0.512 2.048-1.024l1.024-0.512 1.536-1.024c1.024-0.512 2.56-1.024 3.584-2.048 2.56-1.536 4.608-3.072 6.656-4.608l1.024-1.024c1.024-1.024 2.048-1.536 3.072-2.56 1.536-1.536 3.072-3.072 4.096-4.608l1.024-1.024 0.512-1.024c1.024-1.536 1.536-2.56 2.56-4.096l3.072-6.144v0.512c0-0.512 0-0.512 0.512-1.024 1.536-3.584 2.56-7.68 3.584-11.776 0-1.024 0.512-2.56 0.512-3.584-1.024 4.608 0 0 0-1.024v-8.192c0-1.024 0-2.56-0.512-3.584v-1.024c-1.024-5.12-2.56-9.728-4.096-14.336 0-0.512-0.512-1.024-0.512-1.536l-1.536-3.072c-1.024-2.048-2.56-4.096-4.096-6.144l-1.024-1.024c-0.512-1.024-1.536-1.536-2.048-2.56-1.536-2.048-3.584-3.584-5.12-5.12-0.512-0.512-1.024-0.512-1.536-1.024 0 0-0.512 0-1.536-1.536 0.512 0.512 1.024 1.024 1.536 1.024 0-0.512-0.512-0.512-0.512-0.512l-1.024-0.512h-0.512l-0.512-0.512c-3.072-2.048-6.656-4.096-9.728-5.632l-1.024-0.512c-2.048-1.024-4.608-1.536-6.656-2.048-2.048-0.512-4.608-1.024-7.168-1.536h0.512H527.36c-4.096-0.512-8.192-0.512-12.288 0h-1.536c-1.024 0-2.048 0.512-3.584 0.512-3.584 1.024-7.68 2.048-11.264 3.072l-0.512 0.512c-4.608 2.048-8.192 4.608-12.288 7.68l-1.024 1.024-7.68 7.68 0.512-0.512c-0.512 0.512-0.512 1.024-1.024 1.024-2.048 3.072-4.096 6.144-5.632 9.216-0.512 1.024-1.024 2.56-1.536 3.584l1.024-1.536c-0.512 0.512-1.024 1.536-1.024 2.048-1.536 3.584-2.56 7.68-3.072 11.264v1.024c0 2.56-0.512 5.12-0.512 7.68 0 8.192-6.656 13.824-14.336 14.336-7.68 0.512-14.336-6.656-14.336-14.336 0-29.696 15.872-56.832 40.96-71.68 22.016-13.312 50.176-15.872 74.24-6.144 24.576 9.728 43.52 30.208 50.688 55.296 6.656 24.576 2.048 52.224-13.824 72.192-13.824 17.92-34.816 30.208-58.368 32.768z m-0.512-137.728h-1.024 1.024z m42.496 76.288c0.512-2.56 0.512-2.048 0.512-1.024l-0.512 1.024z m-7.68 12.8l1.536-1.536-1.536 1.536z m3.584-152.576c1.024 0.512 3.584 1.536 0 0z m-52.224 275.968c8.192 0 14.336 6.656 14.336 14.336 0.512 7.68-7.168 14.336-14.336 14.336-8.192 0-14.336-6.656-14.336-14.336-0.512-7.68 6.656-14.336 14.336-14.336z m-125.952-202.752z m17.408-30.208c0-0.512 0.512-0.512 0.512-1.024 0 0 0 0.512-0.512 1.024z m81.408 292.864l-0.512-1.024-0.512-0.512v-0.512l1.024 2.048z m32.256 14.336H520.192h1.536z m78.336-117.76l-1.024 1.024c-0.512 0 0-0.512 1.024-1.024z m-88.576 117.76h2.048-2.048z m5.12-397.824c-7.68 0.512-14.336-6.656-14.336-14.336v-74.752c0-8.192 6.656-13.824 14.336-14.336 7.68-0.512 14.336 6.656 14.336 14.336v74.752c0 7.68-6.656 13.824-14.336 14.336z m-160.768 33.28l-7.168-7.168-49.152-48.64c-5.632-5.632-5.12-14.848 0-20.48s14.848-5.12 20.48 0l7.168 7.168 49.152 48.64c5.632 5.632 5.12 14.848 0 20.48-5.632 5.632-15.36 5.12-20.48 0z m0 0" fill="#FFFFFF" p-id="8235"></path></svg>